<svg width="19" height="18" viewBox="0 0 19 18" fill="none" xmlns="http://www.w3.org/2000/svg">
<g clip-path="url(#clip0_1340_43632)">
<path d="M0.5 3.9375C0.5 1.76288 2.26288 0 4.4375 0H14.5625C16.7371 0 18.5 1.76288 18.5 3.9375V14.0625C18.5 16.2371 16.7371 18 14.5625 18H4.4375C2.26288 18 0.5 16.2371 0.5 14.0625V3.9375Z" fill="url(#paint0_linear_1340_43632)"/>
<path d="M3.5 5.31175C3.5 4.86173 3.5 4.63672 3.54539 4.45102C3.68961 3.86104 4.15863 3.4004 4.75934 3.25875C4.94841 3.21417 5.17751 3.21417 5.63571 3.21417H13.3643C13.8225 3.21417 14.0516 3.21417 14.2407 3.25875C14.8414 3.4004 15.3104 3.86104 15.4546 4.45102C15.5 4.63672 15.5 4.86173 15.5 5.31175V12.9023C15.5 13.3523 15.5 13.5773 15.4546 13.763C15.3104 14.353 14.8414 14.8137 14.2407 14.9553C14.0516 14.9999 13.8225 14.9999 13.3643 14.9999H5.63571C5.17751 14.9999 4.94841 14.9999 4.75934 14.9553C4.15863 14.8137 3.68961 14.353 3.54539 13.763C3.5 13.5773 3.5 13.3523 3.5 12.9023V5.31175Z" fill="url(#paint1_linear_1340_43632)"/>
<path d="M6.92859 7.28484C6.92859 7.07832 6.92859 6.97506 6.95145 6.8906C7.00897 6.67816 7.16836 6.51214 7.3723 6.45222C7.45337 6.42841 7.55251 6.42841 7.75077 6.42841H11.2493C11.4475 6.42841 11.5467 6.42841 11.6277 6.45222C11.8317 6.51214 11.9911 6.67816 12.0486 6.8906C12.0714 6.97506 12.0714 7.07832 12.0714 7.28484V10.9291C12.0714 11.1356 12.0714 11.2389 12.0486 11.3234C11.9911 11.5358 11.8317 11.7018 11.6277 11.7617C11.5467 11.7855 11.4475 11.7855 11.2493 11.7855H7.75077C7.55251 11.7855 7.45337 11.7855 7.3723 11.7617C7.16836 11.7018 7.00897 11.5358 6.95145 11.3234C6.92859 11.2389 6.92859 11.1356 6.92859 10.9291V7.28484Z" fill="#00AAD2"/>
</g>
<defs>
<linearGradient id="paint0_linear_1340_43632" x1="9.5" y1="0" x2="9.5" y2="18" gradientUnits="userSpaceOnUse">
<stop stop-color="#57656D"/>
<stop offset="1" stop-color="#374045"/>
</linearGradient>
<linearGradient id="paint1_linear_1340_43632" x1="9.516" y1="3.88909" x2="9.51271" y2="14.9999" gradientUnits="userSpaceOnUse">
<stop stop-color="#1A2633"/>
<stop offset="1" stop-color="#68727C"/>
</linearGradient>
<clipPath id="clip0_1340_43632">
<rect width="18" height="18" fill="white" transform="translate(0.5)"/>
</clipPath>
</defs>
</svg>
