<svg width="24" height="25" viewBox="0 0 24 25" fill="none" xmlns="http://www.w3.org/2000/svg">
<path d="M11.9494 0.210558C5.50653 0.210558 0.263521 5.57056 0.211352 12.1306C0.185333 15.3305 1.38511 18.3706 3.6024 20.6372C5.79346 22.9306 8.74107 24.1839 11.8712 24.2105H11.9495C18.3924 24.2105 23.6354 18.8505 23.6875 12.2905C23.7398 5.67718 18.4967 0.263844 11.9495 0.21051L11.9494 0.210558ZM17.6359 16.2106L17.1142 16.7438C16.2534 17.6238 15.5231 17.8372 14.3753 17.4905C13.1753 17.1172 12.106 16.4505 11.1408 15.6505C9.75827 14.5039 8.27136 13.0104 7.30632 11.4637C6.34124 9.86361 6.02813 8.18375 7.38456 6.79703L7.9062 6.26375C8.27138 5.89042 8.87129 5.89042 9.26265 6.26375L10.8016 7.83703C11.1668 8.21036 11.1668 8.82365 10.8016 9.22375L9.88854 10.1572L9.91456 10.1838C10.9319 11.7571 12.2621 13.1172 13.8012 14.1572L13.8272 14.1838L14.7403 13.2503C15.1055 12.877 15.7054 12.877 16.0967 13.2503L17.6357 14.8236C18.0272 15.2239 18.0272 15.8372 17.6359 16.2105L17.6359 16.2106Z" fill="white"/>
</svg>
