<svg width="20" height="20" viewBox="0 0 20 20" fill="none" xmlns="http://www.w3.org/2000/svg">
<path d="M12.3984 8.47317C13.6959 9.77068 13.6959 11.8744 12.3984 13.1719C11.1009 14.4694 8.99722 14.4694 7.6997 13.1719C6.40218 11.8744 6.40218 9.77068 7.6997 8.47317C8.99722 7.17565 11.1009 7.17565 12.3984 8.47317" stroke="#343E48" stroke-width="1.5" stroke-linecap="round" stroke-linejoin="round"/>
<path fill-rule="evenodd" clip-rule="evenodd" d="M17.5 7.49999V15C17.5 15.9208 16.7542 16.6667 15.8333 16.6667H4.16667C3.24583 16.6667 2.5 15.9208 2.5 15V7.49999C2.5 6.57916 3.24583 5.83333 4.16667 5.83333H5.83333L7.05167 3.74666C7.20083 3.49083 7.475 3.33333 7.77167 3.33333H12.1917C12.4842 3.33333 12.755 3.48666 12.9058 3.73666L14.1667 5.83333H15.8333C16.7542 5.83333 17.5 6.57916 17.5 7.49999Z" stroke="#343E48" stroke-width="1.5" stroke-linecap="round" stroke-linejoin="round"/>
</svg>
