<svg width="149" height="42" viewBox="0 0 149 42" fill="none" xmlns="http://www.w3.org/2000/svg">
<path d="M44.6629 2.31909V1.95911H44.3029H14.9443H14.5844V2.31909V4.11085V4.47083H14.9443H28.1763V38.8787V39.2387H28.5363H30.711H31.0709V38.8787V4.47083H44.3029H44.6629V4.11085V2.31909Z" fill="url(#paint0_linear_1113_29334)" stroke="url(#paint1_linear_1113_29334)" stroke-width="0.71996"/>
<path d="M61.0991 2.05981H89.5376V4.93966H61.0991V2.05981Z" fill="url(#paint2_linear_1113_29334)"/>
<path d="M69.3625 19.2229H81.3987V22.1027H69.3625V19.2229Z" fill="url(#paint3_linear_1113_29334)"/>
<path d="M60.7715 36.2579H89.5699V39.1378H60.7715V36.2579Z" fill="url(#paint4_linear_1113_29334)"/>
<path d="M110.999 36.9663L111.001 36.9675C113.64 38.4924 116.881 39.2445 120.707 39.2445C124.768 39.2445 128.028 38.3562 130.447 36.5393C132.912 34.7179 134.157 32.2991 134.157 29.3111C134.157 28.1447 133.912 27.0746 133.416 26.1076C132.931 25.1607 132.32 24.3641 131.582 23.7237C130.844 23.0497 129.836 22.4244 128.571 21.842C127.316 21.264 126.136 20.7866 125.032 20.4106C123.97 20.0357 122.599 19.6115 120.921 19.138C119.017 18.5991 117.564 18.1624 116.559 17.8276C115.564 17.4623 114.469 16.9796 113.273 16.378C112.143 15.7901 111.365 15.1205 110.903 14.383C110.436 13.6025 110.197 12.6898 110.197 11.6332C110.197 9.66003 111.034 7.98589 112.752 6.59428L112.752 6.59411C114.501 5.17499 116.886 4.44582 119.947 4.44582C122.588 4.44582 124.776 4.97246 126.529 6.0043C128.278 7.03424 129.619 8.58145 130.546 10.6652L130.698 11.0067L131.034 10.8419L132.787 9.98079L133.104 9.82497L132.954 9.50491C131.91 7.27665 130.264 5.46993 128.029 4.08553C125.816 2.65707 123.116 1.95301 119.947 1.95301C116.34 1.95301 113.335 2.86431 110.961 4.71254C108.581 6.53089 107.373 8.86175 107.373 11.6838C107.373 12.8821 107.617 13.9695 108.114 14.9379C108.598 15.8824 109.188 16.6779 109.885 17.3183L109.885 17.3184L109.893 17.3251C110.63 17.9635 111.618 18.5547 112.845 19.1039L112.849 19.1055C114.103 19.6489 115.243 20.092 116.268 20.4337L116.275 20.436L116.282 20.4381C117.338 20.7431 118.705 21.1154 120.382 21.5548L120.382 21.5548C124.109 22.5306 126.872 23.6 128.696 24.7527C130.469 25.8731 131.333 27.3997 131.333 29.3617C131.333 31.5041 130.438 33.2583 128.612 34.647L128.609 34.6492C126.826 36.0336 124.228 36.7517 120.765 36.7517C117.421 36.7517 114.664 36.1021 112.473 34.8257C110.318 33.5474 108.9 31.8566 108.191 29.7532L108.058 29.3603L107.688 29.5467L105.876 30.4585L105.589 30.6029L105.7 30.9045C106.629 33.4243 108.405 35.4442 110.999 36.9663Z" fill="url(#paint5_linear_1113_29334)" stroke="url(#paint6_linear_1113_29334)" stroke-width="0.71996"/>
<defs>
<linearGradient id="paint0_linear_1113_29334" x1="28.5751" y1="4.64686" x2="28.5751" y2="38.8787" gradientUnits="userSpaceOnUse">
<stop stop-color="#D8E1EA"/>
<stop offset="1" stop-color="#ECF2F8"/>
</linearGradient>
<linearGradient id="paint1_linear_1113_29334" x1="28.5751" y1="4.64686" x2="28.5751" y2="38.8787" gradientUnits="userSpaceOnUse">
<stop stop-color="#D8E1EA"/>
<stop offset="1" stop-color="#ECF2F8"/>
</linearGradient>
<linearGradient id="paint2_linear_1113_29334" x1="74.1422" y1="4.42058" x2="74.1422" y2="39.1378" gradientUnits="userSpaceOnUse">
<stop stop-color="#D8E1EA"/>
<stop offset="1" stop-color="#ECF2F8"/>
</linearGradient>
<linearGradient id="paint3_linear_1113_29334" x1="74.1422" y1="4.42058" x2="74.1422" y2="39.1378" gradientUnits="userSpaceOnUse">
<stop stop-color="#D8E1EA"/>
<stop offset="1" stop-color="#ECF2F8"/>
</linearGradient>
<linearGradient id="paint4_linear_1113_29334" x1="74.1422" y1="4.42058" x2="74.1422" y2="39.1378" gradientUnits="userSpaceOnUse">
<stop stop-color="#D8E1EA"/>
<stop offset="1" stop-color="#ECF2F8"/>
</linearGradient>
<linearGradient id="paint5_linear_1113_29334" x1="118.926" y1="4.64151" x2="118.926" y2="38.8845" gradientUnits="userSpaceOnUse">
<stop stop-color="#D8E1EA"/>
<stop offset="1" stop-color="#ECF2F8"/>
</linearGradient>
<linearGradient id="paint6_linear_1113_29334" x1="118.926" y1="4.64151" x2="118.926" y2="38.8845" gradientUnits="userSpaceOnUse">
<stop stop-color="#D8E1EA"/>
<stop offset="1" stop-color="#ECF2F8"/>
</linearGradient>
</defs>
</svg>
