<svg width="19" height="18" viewBox="0 0 19 18" fill="none" xmlns="http://www.w3.org/2000/svg">
<path d="M0.5 3.9375C0.5 1.76288 2.26288 0 4.4375 0H14.5625C16.7371 0 18.5 1.76288 18.5 3.9375V14.0625C18.5 16.2371 16.7371 18 14.5625 18H4.4375C2.26288 18 0.5 16.2371 0.5 14.0625V3.9375Z" fill="url(#paint0_linear_1340_43642)"/>
<path d="M3.59375 5.23125C3.59375 4.78021 3.59375 4.55469 3.63843 4.36857C3.7804 3.77725 4.24209 3.31555 4.83341 3.17359C5.01953 3.12891 5.24505 3.12891 5.69609 3.12891H13.3039C13.7549 3.12891 13.9805 3.12891 14.1666 3.17359C14.7579 3.31555 15.2196 3.77725 15.3616 4.36857C15.4063 4.55469 15.4063 4.78021 15.4063 5.23125V12.8391C15.4063 13.2901 15.4063 13.5156 15.3616 13.7017C15.2196 14.2931 14.7579 14.7548 14.1666 14.8967C13.9805 14.9414 13.7549 14.9414 13.3039 14.9414H5.69609C5.24505 14.9414 5.01953 14.9414 4.83341 14.8967C4.24209 14.7548 3.7804 14.2931 3.63843 13.7017C3.59375 13.5156 3.59375 13.2901 3.59375 12.8391V5.23125Z" fill="url(#paint1_linear_1340_43642)"/>
<path d="M6.76782 7.12188C6.76782 6.91587 6.76782 6.81286 6.79158 6.72862C6.85135 6.51671 7.01696 6.3511 7.22886 6.29134C7.31311 6.26758 7.41611 6.26758 7.62212 6.26758H11.2573C11.4633 6.26758 11.5663 6.26758 11.6505 6.29134C11.8624 6.3511 12.028 6.51671 12.0878 6.72862C12.1116 6.81286 12.1116 6.91587 12.1116 7.12188V10.757C12.1116 10.963 12.1116 11.066 12.0878 11.1503C12.028 11.3622 11.8624 11.5278 11.6505 11.5876C11.5663 11.6113 11.4633 11.6113 11.2573 11.6113H7.62212C7.41611 11.6113 7.31311 11.6113 7.22886 11.5876C7.01696 11.5278 6.85135 11.3622 6.79158 11.1503C6.76782 11.066 6.76782 10.963 6.76782 10.757V7.12188Z" fill="#00AAD2"/>
<defs>
<linearGradient id="paint0_linear_1340_43642" x1="9.5" y1="0" x2="9.5" y2="18" gradientUnits="userSpaceOnUse">
<stop stop-color="white"/>
<stop offset="1" stop-color="#D5D8DE"/>
</linearGradient>
<linearGradient id="paint1_linear_1340_43642" x1="9.5" y1="3.12891" x2="9.5" y2="14.9414" gradientUnits="userSpaceOnUse">
<stop stop-color="#D5D8DE"/>
<stop offset="1" stop-color="white"/>
</linearGradient>
</defs>
</svg>
