<svg width="40" height="40" viewBox="0 0 40 40" fill="none" xmlns="http://www.w3.org/2000/svg">
<rect width="40" height="40" rx="11.7073" fill="white"/>
<path d="M22.3768 8.80322V14.7452H20.1208C18.7394 14.7452 17.4145 15.299 16.4377 16.2848C15.4609 17.2707 14.9121 18.6077 14.9121 20.0019C14.9121 21.396 15.4609 22.7331 16.4377 23.7189C17.4145 24.7048 18.7394 25.2586 20.1208 25.2586H22.3768V31.1961C24.933 30.6681 27.23 29.2654 28.8796 27.2253C30.5293 25.1852 31.4302 22.6328 31.4302 19.9997C31.4302 17.3665 30.5293 14.8141 28.8796 12.774C27.23 10.7339 24.933 9.33125 22.3768 8.80322Z" fill="#005395"/>
<path d="M20.12 27.0841C18.2583 27.0841 16.4728 26.3377 15.1564 25.0092C13.84 23.6806 13.1004 21.8787 13.1004 19.9999C13.1004 18.121 13.84 16.3191 15.1564 14.9905C16.4728 13.662 18.2583 12.9156 20.12 12.9156H20.5745V8.57352H20.12C18.6144 8.54352 17.1179 8.81689 15.7183 9.37765C14.3186 9.9384 13.0438 10.7753 11.9685 11.8393C10.8932 12.9033 10.0389 14.173 9.45578 15.5743C8.87263 16.9755 8.57227 18.4801 8.57227 19.9999C8.57227 21.5197 8.87263 23.0242 9.45578 24.4254C10.0389 25.8267 10.8932 27.0964 11.9685 28.1604C13.0438 29.2245 14.3186 30.0613 15.7183 30.6221C17.1179 31.1828 18.6144 31.4562 20.12 31.4262H20.5745V27.0841H20.12Z" fill="#EC1D23"/>
</svg>
