<svg width="57" height="55" viewBox="0 0 57 55" fill="none" xmlns="http://www.w3.org/2000/svg">
<g filter="url(#filter0_d_2211_544)">
<g clip-path="url(#clip0_2211_544)">
<g filter="url(#filter1_d_2211_544)">
<circle cx="27.5" cy="25" r="20.3848" fill="url(#paint0_linear_2211_544)"/>
</g>
<mask id="mask0_2211_544" style="mask-type:alpha" maskUnits="userSpaceOnUse" x="7" y="4" width="41" height="42">
<circle cx="27.499" cy="25" r="20.3848" fill="url(#paint1_linear_2211_544)"/>
</mask>
<g mask="url(#mask0_2211_544)">
<g opacity="0.5">
<path opacity="0.35" d="M44.943 55.463C44.943 55.463 50.8169 54.3918 51.8432 51.2867C52.8695 48.1816 45.9497 44.8426 34.6981 42.7707C23.4466 40.6987 23.9058 33.4212 17.2801 34.119C10.6544 34.8168 10.3799 38.2953 10.3799 38.2953L44.943 55.463Z" fill="url(#paint2_linear_2211_544)"/>
<path opacity="0.4" d="M51.5336 52.3999C51.5336 52.3999 56.0419 50.1704 54.8109 46.9773C53.58 43.7843 45.0859 41.9903 33.5972 42.2987C22.1084 42.6071 17.4841 35.5212 12.0456 37.5456C6.60705 39.5699 8.76825 42.9681 8.76825 42.9681L51.5336 52.3999Z" fill="url(#paint3_linear_2211_544)"/>
</g>
<g opacity="0.5">
<path opacity="0.35" d="M6.86087 -2.8203C6.86087 -2.8203 1.11391 -1.20091 0.38447 1.98701C-0.344976 5.17493 6.85838 7.84771 18.255 8.85133C29.6516 9.85496 28.2867 18.9491 34.8173 17.6307C41.3479 16.3123 42.8865 11.0177 42.8865 11.0177L6.86087 -2.8203Z" fill="url(#paint4_linear_2211_544)"/>
<path opacity="0.4" d="M3.15112 1.1659C3.15112 1.1659 7.89931 9.85052 9.26453 12.8937C10.6298 15.9368 9.90177 10.8423 20.7353 9.38277C31.5687 7.92324 36.3863 14.4864 41.3956 11.9327C46.4049 9.37893 44.1479 6.22575 44.1479 6.22575L3.15112 1.1659Z" fill="url(#paint5_linear_2211_544)"/>
</g>
</g>
<g clip-path="url(#clip1_2211_544)">
<circle cx="27.6004" cy="24.9544" r="18.4781" fill="url(#paint6_radial_2211_544)"/>
<g opacity="0.8">
<path opacity="0.1" d="M26.2143 40.6316C26.2981 42.1137 26.7412 42.9509 27.4083 43.3157C28.0784 43.6822 29.0021 43.5878 30.0847 43.1376C32.247 42.2385 34.9719 39.9493 37.3663 37.3592C39.7601 34.7697 41.8123 31.8916 42.6352 29.824C42.8408 29.3076 42.9684 28.8447 43.0066 28.4516C43.0448 28.0578 42.9927 27.7406 42.8469 27.5087C42.7026 27.2791 42.46 27.1229 42.0943 27.0626C41.7265 27.0019 41.2373 27.039 40.6096 27.1961C39.3244 27.5179 38.2822 27.2374 37.4216 26.5402C36.5647 25.8461 35.8914 24.7421 35.3299 23.4223C34.5218 21.5227 33.9377 19.1555 33.3761 16.8797C33.1579 15.9954 32.9431 15.1248 32.7198 14.3009C32.3201 12.8255 31.8937 11.4996 31.3732 10.5027C30.8515 9.50364 30.244 8.8518 29.4905 8.69482C28.738 8.53805 27.8109 8.86906 26.6349 9.90968C25.4606 10.9488 24.0511 12.6843 22.3385 15.3043C18.9098 20.5496 16.4298 23.7398 14.7221 25.6453C13.8683 26.598 13.2069 27.2303 12.7159 27.6379C12.7139 27.6396 12.7119 27.6412 12.7099 27.6428C13.4086 27.6115 14.3686 27.8552 15.4889 28.7985C16.8275 29.9255 18.1191 30.4804 19.317 30.8645C19.7351 30.9986 20.1407 31.1116 20.5338 31.2211C20.7051 31.2688 20.8741 31.3159 21.0407 31.3637C21.5883 31.521 22.1086 31.6865 22.5928 31.9109C23.5649 32.3613 24.3885 33.0473 25.0095 34.3722C25.6288 35.6932 26.0457 37.647 26.2143 40.6316ZM12.2083 27.8594C11.9409 27.9364 11.7585 28.0513 11.6727 28.1368C11.6615 28.1479 11.6525 28.1581 11.6453 28.1671C11.6554 28.165 11.6672 28.1619 11.681 28.1577C11.7845 28.1257 11.9578 28.0371 12.2083 27.8594Z" fill="url(#paint7_linear_2211_544)" stroke="url(#paint8_linear_2211_544)" stroke-width="0.135619"/>
<path opacity="0.3" d="M38.8245 10.8855C41.2769 12.2137 42.4493 13.6699 42.8582 15.2166C43.268 16.7665 42.9154 18.4222 42.2835 20.159C41.9678 21.0267 41.5835 21.9119 41.1921 22.812L41.1802 22.8393C40.7929 23.73 40.3992 24.6351 40.0608 25.549C39.3771 27.395 38.9155 29.2843 39.1854 31.1781C39.4531 33.0554 39.5737 34.5845 39.3437 35.787C39.1148 36.9838 38.5393 37.855 37.4089 38.4236C36.2724 38.9954 34.57 39.2638 32.0831 39.2343C29.5978 39.2048 26.3375 38.8781 22.0911 38.2666C17.8546 37.6566 15.1634 36.1615 13.6362 34.2086C12.1094 32.2562 11.7376 29.8355 12.1621 27.3558C12.5866 24.8755 13.8076 22.3404 15.4599 20.1692C17.1122 17.9979 19.1924 16.1948 21.3311 15.1751C23.4875 14.147 25.0486 13.0297 26.3304 12.0168C26.6838 11.7375 27.0153 11.4667 27.3317 11.2083C28.1654 10.5274 28.8945 9.93196 29.6453 9.48978C30.6755 8.88307 31.7409 8.56924 33.1598 8.73575C34.5826 8.90272 36.3645 9.55314 38.8245 10.8855Z" fill="url(#paint9_linear_2211_544)" stroke="url(#paint10_linear_2211_544)" stroke-width="0.135619"/>
<path opacity="0.3" d="M34.6629 19.3135C36.6965 22.296 37.6043 24.5918 37.7944 26.4441C37.9842 28.2933 37.4593 29.707 36.6126 30.9292C35.925 31.9217 35.0275 32.7855 34.1244 33.6546C33.9118 33.8593 33.6989 34.0642 33.4883 34.2712C32.3867 35.354 31.3528 36.4905 30.7987 37.9204C30.2572 39.3179 29.2788 40.2121 28.0387 40.5648C26.7966 40.9181 25.2834 40.7303 23.6718 39.9443C20.4483 38.3721 16.8477 34.4125 14.2922 27.6763C11.7368 20.9402 12.0346 15.9659 13.6245 13.0148C14.4191 11.5397 15.536 10.5704 16.7818 10.1341C18.0273 9.69785 19.4075 9.79221 20.734 10.4548C22.0862 11.1303 23.1301 11.2752 24.0612 11.3002C24.3308 11.3074 24.5944 11.3045 24.8519 11.3017C25.0341 11.2997 25.2132 11.2977 25.3891 11.2994C25.818 11.3035 26.241 11.3288 26.6844 11.4253C28.4551 11.8106 30.5889 13.3383 34.6629 19.3135Z" fill="url(#paint11_linear_2211_544)" stroke="url(#paint12_linear_2211_544)" stroke-width="0.135619"/>
</g>
<g style="mix-blend-mode:multiply">
<path d="M21.3126 21.0429V20.9659H21.2356H14.9536H14.8766V21.0429V21.4263V21.5033H14.9536H17.7849V28.8657V28.9427H17.8619H18.3273H18.4043V28.8657V21.5033H21.2356H21.3126V21.4263V21.0429Z" fill="#4E5E6D" stroke="#4D5D6C" stroke-width="0.154053"/>
<path d="M24.8294 20.9874H30.9145V21.6036H24.8294V20.9874Z" fill="#4E5E6D"/>
<path d="M26.5975 24.6599H29.173V25.2761H26.5975V24.6599Z" fill="#4E5E6D"/>
<path d="M24.7593 28.3049H30.9214V28.9211H24.7593V28.3049Z" fill="#4E5E6D"/>
<path d="M35.5067 28.4566L35.5072 28.4568C36.0719 28.7831 36.7654 28.944 37.584 28.944C38.4531 28.944 39.1506 28.7539 39.6682 28.3652C40.1956 27.9755 40.4621 27.4579 40.4621 26.8185C40.4621 26.569 40.4096 26.34 40.3035 26.1331C40.1996 25.9305 40.069 25.76 39.9111 25.623C39.7532 25.4788 39.5375 25.345 39.2668 25.2204C38.9982 25.0967 38.7458 24.9945 38.5096 24.9141C38.2824 24.8339 37.989 24.7431 37.6299 24.6418C37.2225 24.5264 36.9116 24.433 36.6966 24.3614C36.4836 24.2832 36.2493 24.1799 35.9935 24.0512C35.7517 23.9254 35.5852 23.7821 35.4864 23.6243C35.3863 23.4573 35.3351 23.262 35.3351 23.0359C35.3351 22.6137 35.5143 22.2555 35.8818 21.9577L35.8819 21.9577C36.2561 21.6541 36.7665 21.498 37.4214 21.498C37.9866 21.498 38.4547 21.6107 38.8298 21.8315C39.2041 22.0519 39.491 22.3829 39.6894 22.8288L39.722 22.9019L39.7938 22.8666L40.1689 22.6824L40.2368 22.649L40.2047 22.5805C39.9812 22.1038 39.629 21.7172 39.1507 21.4209C38.6774 21.1153 38.0996 20.9646 37.4214 20.9646C36.6496 20.9646 36.0068 21.1596 35.4987 21.5551C34.9895 21.9442 34.7309 22.4429 34.7309 23.0468C34.7309 23.3032 34.7832 23.5358 34.8895 23.7431C34.9931 23.9451 35.1192 24.1154 35.2686 24.2524L35.2685 24.2524L35.2702 24.2538C35.4278 24.3905 35.6393 24.517 35.9019 24.6345L35.9019 24.6345L35.9027 24.6348C36.171 24.7511 36.4149 24.8459 36.6343 24.919L36.6343 24.9191L36.6373 24.9199C36.8632 24.9852 37.1557 25.0649 37.5144 25.1589L37.5145 25.1589C38.3119 25.3677 38.9032 25.5965 39.2935 25.8432C39.6728 26.0829 39.8578 26.4096 39.8578 26.8294C39.8578 27.2878 39.6662 27.6631 39.2755 27.9603L39.2755 27.9603L39.2749 27.9608C38.8934 28.257 38.3376 28.4106 37.5965 28.4106C36.881 28.4106 36.2911 28.2717 35.8224 27.9986C35.3612 27.725 35.0577 27.3632 34.9059 26.9132L34.8776 26.8291L34.7983 26.869L34.4107 27.0641L34.3493 27.095L34.373 27.1595C34.5718 27.6987 34.9517 28.1309 35.5067 28.4566Z" fill="#4E5E6D" stroke="#4E5E6D" stroke-width="0.154053"/>
</g>
</g>
</g>
</g>
<defs>
<filter id="filter0_d_2211_544" x="-3.56701" y="-4.04639" width="64.1546" height="64.1546" filterUnits="userSpaceOnUse" color-interpolation-filters="sRGB">
<feFlood flood-opacity="0" result="BackgroundImageFix"/>
<feColorMatrix in="SourceAlpha" type="matrix" values="0 0 0 0 0 0 0 0 0 0 0 0 0 0 0 0 0 0 127 0" result="hardAlpha"/>
<feOffset dx="1.01031" dy="3.03093"/>
<feGaussianBlur stdDeviation="3.78866"/>
<feComposite in2="hardAlpha" operator="out"/>
<feColorMatrix type="matrix" values="0 0 0 0 0 0 0 0 0 0 0 0 0 0 0 0 0 0 0.11 0"/>
<feBlend mode="normal" in2="BackgroundImageFix" result="effect1_dropShadow_2211_544"/>
<feBlend mode="normal" in="SourceGraphic" in2="effect1_dropShadow_2211_544" result="shape"/>
</filter>
<filter id="filter1_d_2211_544" x="-1.21094" y="-3.71094" width="57.8047" height="57.8047" filterUnits="userSpaceOnUse" color-interpolation-filters="sRGB">
<feFlood flood-opacity="0" result="BackgroundImageFix"/>
<feColorMatrix in="SourceAlpha" type="matrix" values="0 0 0 0 0 0 0 0 0 0 0 0 0 0 0 0 0 0 127 0" result="hardAlpha"/>
<feOffset dx="0.191406" dy="0.191406"/>
<feGaussianBlur stdDeviation="4.25879"/>
<feComposite in2="hardAlpha" operator="out"/>
<feColorMatrix type="matrix" values="0 0 0 0 0.203922 0 0 0 0 0.243137 0 0 0 0 0.282353 0 0 0 0.16 0"/>
<feBlend mode="normal" in2="BackgroundImageFix" result="effect1_dropShadow_2211_544"/>
<feBlend mode="normal" in="SourceGraphic" in2="effect1_dropShadow_2211_544" result="shape"/>
</filter>
<linearGradient id="paint0_linear_2211_544" x1="27.5" y1="4.61523" x2="27.5" y2="45.3848" gradientUnits="userSpaceOnUse">
<stop stop-color="white"/>
<stop offset="1" stop-color="#F5F5F5"/>
</linearGradient>
<linearGradient id="paint1_linear_2211_544" x1="27.499" y1="4.61523" x2="27.499" y2="45.3848" gradientUnits="userSpaceOnUse">
<stop stop-color="white"/>
<stop offset="1" stop-color="#F5F5F5"/>
</linearGradient>
<linearGradient id="paint2_linear_2211_544" x1="40.1057" y1="43.9407" x2="36.9379" y2="50.1715" gradientUnits="userSpaceOnUse">
<stop stop-color="#B0CFEE"/>
<stop offset="1" stop-color="#D8E1EA" stop-opacity="0"/>
</linearGradient>
<linearGradient id="paint3_linear_2211_544" x1="39.2392" y1="42.3178" x2="37.8738" y2="48.3026" gradientUnits="userSpaceOnUse">
<stop stop-color="#D8E1EA"/>
<stop offset="1" stop-color="#D8E1EA" stop-opacity="0"/>
</linearGradient>
<linearGradient id="paint4_linear_2211_544" x1="12.7614" y1="8.19556" x2="15.3286" y2="1.69414" gradientUnits="userSpaceOnUse">
<stop stop-color="#B8CADD"/>
<stop offset="1" stop-color="#D8E1EA" stop-opacity="0"/>
</linearGradient>
<linearGradient id="paint5_linear_2211_544" x1="15.4056" y1="9.92972" x2="16.2043" y2="3.84245" gradientUnits="userSpaceOnUse">
<stop stop-color="#D8E1EA"/>
<stop offset="1" stop-color="#D8E1EA" stop-opacity="0"/>
</linearGradient>
<radialGradient id="paint6_radial_2211_544" cx="0" cy="0" r="1" gradientUnits="userSpaceOnUse" gradientTransform="translate(27.6004 24.9544) rotate(89.8828) scale(17.6826)">
<stop offset="0.414583" stop-color="white"/>
<stop offset="0.787041" stop-color="white" stop-opacity="0"/>
</radialGradient>
<linearGradient id="paint7_linear_2211_544" x1="13.1874" y1="26.9395" x2="41.8958" y2="28.1433" gradientUnits="userSpaceOnUse">
<stop stop-color="#72879E"/>
<stop offset="1" stop-color="#72879E" stop-opacity="0"/>
</linearGradient>
<linearGradient id="paint8_linear_2211_544" x1="13.1874" y1="26.9395" x2="19.9815" y2="24.7351" gradientUnits="userSpaceOnUse">
<stop stop-color="#E7EEF5"/>
<stop offset="1" stop-color="#E7EEF5"/>
</linearGradient>
<linearGradient id="paint9_linear_2211_544" x1="15.5563" y1="18.4034" x2="42.082" y2="29.9641" gradientUnits="userSpaceOnUse">
<stop stop-color="#C6D2DF" stop-opacity="0.483798"/>
<stop offset="0.495836" stop-color="#D3DCE5" stop-opacity="0"/>
<stop offset="1" stop-color="#D6DFE8"/>
</linearGradient>
<linearGradient id="paint10_linear_2211_544" x1="39.3441" y1="38.7427" x2="27.5966" y2="27.2689" gradientUnits="userSpaceOnUse">
<stop stop-color="#E0E6ED"/>
<stop offset="1" stop-color="#DFE6EC" stop-opacity="0"/>
</linearGradient>
<linearGradient id="paint11_linear_2211_544" x1="18.103" y1="8.76824" x2="35.0285" y2="37.3493" gradientUnits="userSpaceOnUse">
<stop stop-color="#C4DEF5"/>
<stop offset="0.294989" stop-color="#C4DEF5" stop-opacity="0"/>
<stop offset="0.597966" stop-color="#C4DEF5" stop-opacity="0"/>
<stop offset="0.875" stop-color="#C3DDF4"/>
</linearGradient>
<linearGradient id="paint12_linear_2211_544" x1="34.8293" y1="37.8745" x2="27.5676" y2="30.2797" gradientUnits="userSpaceOnUse">
<stop stop-color="#C4DDF4"/>
<stop offset="1" stop-color="#C4DDF4" stop-opacity="0"/>
</linearGradient>
<clipPath id="clip0_2211_544">
<rect x="3" y="0.5" width="49" height="49" rx="12.6289" fill="white"/>
</clipPath>
<clipPath id="clip1_2211_544">
<rect width="34.7185" height="34.7185" fill="white" transform="translate(10.2751 7.56113)"/>
</clipPath>
</defs>
</svg>
