<svg width="40" height="40" viewBox="0 0 40 40" fill="none" xmlns="http://www.w3.org/2000/svg">
<path fill-rule="evenodd" clip-rule="evenodd" d="M8.33356 33.3335C8.33356 29.1669 11.6669 26.0002 15.6669 26.0002H24.1669C28.3336 26.0002 31.5002 29.3335 31.5002 33.3335" fill="white"/>
<path d="M8.33356 33.3335C8.33356 29.1669 11.6669 26.0002 15.6669 26.0002H24.1669C28.3336 26.0002 31.5002 29.3335 31.5002 33.3335" stroke="white" stroke-width="1.744" stroke-linecap="round" stroke-linejoin="round"/>
<path fill-rule="evenodd" clip-rule="evenodd" d="M25.0002 8.66684C27.8335 11.5002 27.8335 16.0002 25.0002 18.6668C22.1668 21.3335 17.6668 21.5002 15.0002 18.6668C12.3335 15.8335 12.1668 11.3335 15.0002 8.66684C17.8335 6.00017 22.1668 6.00017 25.0002 8.66684Z" fill="white"/>
<path d="M25.0002 8.66684C27.8335 11.5002 27.8335 16.0002 25.0002 18.6668C22.1668 21.3335 17.6668 21.5002 15.0002 18.6668C12.3335 15.8335 12.1668 11.3335 15.0002 8.66684C17.8335 6.00017 22.1668 6.00017 25.0002 8.66684" stroke="white" stroke-width="1.76471" stroke-linecap="round" stroke-linejoin="round"/>
</svg>
