<svg width="1920" height="1240" viewBox="0 0 1920 1240" fill="none" xmlns="http://www.w3.org/2000/svg">
<path d="M526.432 528.889C770.695 547.698 887.582 747.784 735.071 886.034L470.588 1125.78C320.447 1261.89 20.8796 1235.9 -70.8891 1078.81L-230.003 806.441C-321.772 649.354 -137.632 477.755 102.835 496.271L526.432 528.889Z" fill="url(#paint0_linear_571_16479)" fill-opacity="0.6"/>
<path d="M668.689 693.254C700.499 564.67 920.062 562.169 1060.6 688.79L1304.32 908.373C1442.67 1033.03 1400.53 1189.82 1228.16 1191.78L929.275 1195.19C756.896 1197.15 582.211 1042.83 613.526 916.242L668.689 693.254Z" fill="url(#paint1_linear_571_16479)"/>
<path d="M744.137 682.344C709.788 809.475 490.271 802.33 352.309 669.591L113.058 439.397C-22.7592 308.721 22.4714 153.846 194.814 159.455L493.632 169.181C665.975 174.791 837.52 336.722 803.704 461.877L744.137 682.344Z" fill="url(#paint2_linear_571_16479)" fill-opacity="0.6"/>
<path d="M771.045 590.516C498.703 488.521 565.158 260.902 889.664 184.226L1452.42 51.257C1771.88 -24.2268 2102.88 103.595 2050.7 282.299L1960.24 592.146C1908.07 770.85 1511.45 867.804 1243.34 767.394L771.045 590.516Z" fill="url(#paint3_linear_571_16479)" fill-opacity="0.6"/>
<path d="M647.264 -608.146C895.161 -809.796 948.384 -506.873 742.266 -67.4425L384.82 694.611C181.905 1127.21 -121.118 1368.41 -162.904 1130.59L-235.356 718.234C-277.142 480.41 -26.677 -59.9302 217.367 -258.447L647.264 -608.146Z" fill="url(#paint4_linear_571_16479)" fill-opacity="0.3"/>
<path d="M1569.78 353.198C1289.01 393.541 1130.95 664.101 1287.65 836.135L1559.4 1134.47C1713.66 1303.83 2058.36 1250.52 2182.45 1038.1L2397.61 669.799C2521.7 457.382 2333.08 243.519 2056.68 283.236L1569.78 353.198Z" fill="url(#paint5_linear_571_16479)" fill-opacity="0.7"/>
<g filter="url(#filter0_b_571_16479)">
<rect width="2665" height="1428.84" transform="matrix(-1 0 0 1 2559 -79.2412)" fill="white" fill-opacity="0.35"/>
</g>
<defs>
<filter id="filter0_b_571_16479" x="-278" y="-251.241" width="3009" height="1772.84" filterUnits="userSpaceOnUse" color-interpolation-filters="sRGB">
<feFlood flood-opacity="0" result="BackgroundImageFix"/>
<feGaussianBlur in="BackgroundImageFix" stdDeviation="86"/>
<feComposite in2="SourceAlpha" operator="in" result="effect1_backgroundBlur_571_16479"/>
<feBlend mode="normal" in="SourceGraphic" in2="effect1_backgroundBlur_571_16479" result="shape"/>
</filter>
<linearGradient id="paint0_linear_571_16479" x1="1141.69" y1="644.685" x2="-40.028" y2="1161.66" gradientUnits="userSpaceOnUse">
<stop stop-color="#41FFFD"/>
<stop offset="1" stop-color="#6ADCDB" stop-opacity="0"/>
</linearGradient>
<linearGradient id="paint1_linear_571_16479" x1="823.872" y1="595.32" x2="830.718" y2="1196.31" gradientUnits="userSpaceOnUse">
<stop stop-color="#FF9A6F" stop-opacity="0.71"/>
<stop offset="1" stop-color="#FF9A6F" stop-opacity="0"/>
</linearGradient>
<linearGradient id="paint2_linear_571_16479" x1="587.078" y1="773.419" x2="606.625" y2="172.859" gradientUnits="userSpaceOnUse">
<stop stop-color="#FF9A6F" stop-opacity="0.71"/>
<stop offset="1" stop-color="#FF9A6F" stop-opacity="0"/>
</linearGradient>
<linearGradient id="paint3_linear_571_16479" x1="1011.93" y1="135.881" x2="1147" y2="865.219" gradientUnits="userSpaceOnUse">
<stop stop-color="#8F86FF"/>
<stop offset="1" stop-color="#8F86FF" stop-opacity="0"/>
</linearGradient>
<linearGradient id="paint4_linear_571_16479" x1="673.37" y1="117.67" x2="97.6663" y2="-173.172" gradientUnits="userSpaceOnUse">
<stop stop-color="#8F86FF"/>
<stop offset="1" stop-color="#8F86FF" stop-opacity="0"/>
</linearGradient>
<linearGradient id="paint5_linear_571_16479" x1="854.081" y1="544.779" x2="2140.55" y2="1141.35" gradientUnits="userSpaceOnUse">
<stop stop-color="#41FFFD"/>
<stop offset="1" stop-color="#6ADCDB" stop-opacity="0"/>
</linearGradient>
</defs>
</svg>
